# xmcd
#
# Track frame offsets: 
#        150
#        19636
#        38327
#        64565
#        81959
#        109250
#        137258
#        152204
#        170989
#        196114
#
# Disc length: 3211 seconds
#
# Revision: 0
# Processed by: cddbd v1.5.2PL0 Copyright (c) Steve Scherf et al.
# Submitted via: ExactAudioCopyFreeDBPlugin 1.0
#
DISCID=760c890a
DTITLE=Rick Fowler - Back On My Good Foot
DYEAR=2008
DGENRE=Blues
TTITLE0=Infected With The Blues
TTITLE1=Skeletons In Your Close
TTITLE2=Feel So Much Better
TTITLE3=Back On My Good Foot
TTITLE4=Preacher
TTITLE5=Walk Softly
TTITLE6=Running From the Truth
TTITLE7=Road To Nowhere
TTITLE8=Hitchhiking
TTITLE9=Hell Bound Train
EXTD=
EXTT0=
EXTT1=
EXTT2=
EXTT3=
EXTT4=
EXTT5=
EXTT6=
EXTT7=
EXTT8=
EXTT9=
PLAYORDER=
